<svg xmlns="http://www.w3.org/2000/svg" viewBox="0 0 960 640" role="img" aria-labelledby="t"><title id="t">店舗エントランスの設置イメージ</title><rect width="960" height="640" rx="40" fill="#f7f4ec"/><rect x="60" y="66" width="840" height="474" rx="26" fill="#fff"/><rect x="98" y="106" width="440" height="324" rx="18" fill="#e5eee3"/><rect x="126" y="138" width="384" height="260" rx="12" fill="#fdfdfb"/><rect x="168" y="178" width="300" height="62" rx="18" fill="#edf4eb"/><rect x="205" y="267" width="226" height="24" rx="12" fill="#a6c76a"/><rect x="195" y="330" width="246" height="22" rx="11" fill="#dfe6df"/><path d="M720 492c-7-117 11-217 50-306" fill="none" stroke="#24593f" stroke-width="12" stroke-linecap="round"/><path d="M759 260c-71-72-78-149-17-154 64 6 61 89 17 154Z" fill="#4d7c57"/><path d="M749 333c65-67 136-71 144-10-3 61-82 64-144 10Z" fill="#a6c76a"/><path d="M727 402c-63-51-128-46-124 11 14 54 80 43 124-11Z" fill="#24593f"/><path d="M679 486h139l-18 108H697Z" fill="#173d2b"/><rect x="594" y="118" width="222" height="68" rx="20" fill="#173d2b"/><rect x="631" y="143" width="148" height="18" rx="9" fill="#a6c76a"/></svg>